<svg xmlns="http://www.w3.org/2000/svg" width="61.912" height="98.261" viewBox="0 0 61.912 98.261">
  <g id="Group_122" data-name="Group 122" transform="translate(-2075.641 569.939)">
    <g id="Group_101" data-name="Group 101" transform="translate(2096.515 -490.634)">
      <path id="Path_353" data-name="Path 353" d="M2146.406-308.092v14.135s3.021,3.292,9.411,3.292a15.55,15.55,0,0,0,9.568-3.292v-14.135Z" transform="translate(-2145.642 308.857)" fill="#fff"/>
      <path id="Path_354" data-name="Path 354" d="M2154.082-291.636c-6.651,0-9.842-3.4-9.975-3.54a.766.766,0,0,1-.2-.517v-14.135a.765.765,0,0,1,.765-.764h18.979a.764.764,0,0,1,.764.764v14.135a.764.764,0,0,1-.261.575A16.207,16.207,0,0,1,2154.082-291.636Zm-8.647-4.383a12.958,12.958,0,0,0,8.647,2.854,15.1,15.1,0,0,0,8.8-2.9v-13h-17.45Z" transform="translate(-2143.906 310.592)" fill="#231f20"/>
    </g>
    <g id="Group_102" data-name="Group 102" transform="translate(2080.17 -549.984)">
      <path id="Path_355" data-name="Path 355" d="M2118.835-502.179c-14.226,0-25.884,19.634-25.884,36.319s11.532,30.211,25.757,30.211,25.758-13.526,25.758-30.211S2133.06-502.179,2118.835-502.179Z" transform="translate(-2092.187 502.943)" fill="#fff"/>
      <path id="Path_356" data-name="Path 356" d="M2116.973-436.62c-14.625,0-26.522-13.9-26.522-30.976a46.452,46.452,0,0,1,7.737-24.842c5.3-7.894,12.013-12.241,18.912-12.241s13.56,4.349,18.787,12.245a46.878,46.878,0,0,1,7.608,24.839C2143.494-450.515,2131.6-436.62,2116.973-436.62Zm.127-66.53c-11.378,0-25.12,15.86-25.12,35.554,0,16.237,11.212,29.447,24.993,29.447s24.992-13.21,24.992-29.447C2141.965-483.7,2130.874-503.15,2117.1-503.15Z" transform="translate(-2090.451 504.679)" fill="#231f20"/>
    </g>
    <g id="Group_103" data-name="Group 103" transform="translate(2087.588 -516.947)">
      <path id="Path_357" data-name="Path 357" d="M2122.033-396.64a4.364,4.364,0,0,0-4.249,3.392l-2.137-.874a.678.678,0,0,0-.884.371.678.678,0,0,0,.371.884l2.963,1.212a.681.681,0,0,0,.257.05.678.678,0,0,0,.378-.115.678.678,0,0,0,.3-.563,3.006,3.006,0,0,1,3-3,3.005,3.005,0,0,1,3,3,.678.678,0,0,0,.678.678.678.678,0,0,0,.678-.678A4.362,4.362,0,0,0,2122.033-396.64Z" transform="translate(-2114.712 396.64)" fill="#231f20"/>
    </g>
    <g id="Group_104" data-name="Group 104" transform="translate(2088.904 -517.411)">
      <path id="Path_358" data-name="Path 358" d="M2120.2-397.93a.678.678,0,0,0-.957-.058.678.678,0,0,0-.058.957l1.973,2.227a.677.677,0,0,0,.508.228.675.675,0,0,0,.449-.171.677.677,0,0,0,.058-.957Z" transform="translate(-2119.016 398.158)" fill="#231f20"/>
    </g>
    <g id="Group_105" data-name="Group 105" transform="translate(2092.39 -515.515)">
      <path id="Path_359" data-name="Path 359" d="M2134.376-389.74a1.743,1.743,0,0,0-1.743,1.743,1.743,1.743,0,0,0,1.743,1.743,1.743,1.743,0,0,0,1.743-1.743A1.743,1.743,0,0,0,2134.376-389.74Z" transform="translate(-2131.955 390.418)" fill="#fff"/>
      <path id="Path_360" data-name="Path 360" d="M2132.837-391.957a2.424,2.424,0,0,0-2.421,2.421,2.423,2.423,0,0,0,2.421,2.421,2.424,2.424,0,0,0,2.421-2.421A2.424,2.424,0,0,0,2132.837-391.957Zm0,3.486a1.066,1.066,0,0,1-1.065-1.065,1.066,1.066,0,0,1,1.065-1.065,1.066,1.066,0,0,1,1.065,1.065A1.066,1.066,0,0,1,2132.837-388.471Z" transform="translate(-2130.416 391.957)" fill="#1d1d1b"/>
    </g>
    <g id="Group_106" data-name="Group 106" transform="translate(2090.454 -524.036)">
      <path id="Path_361" data-name="Path 361" d="M2132.12-419.823h-7.359a.678.678,0,0,0-.678.678.678.678,0,0,0,.678.678h7.359a.678.678,0,0,0,.678-.678A.678.678,0,0,0,2132.12-419.823Z" transform="translate(-2124.083 419.823)" fill="#231f20"/>
    </g>
    <g id="Group_107" data-name="Group 107" transform="translate(2112.531 -524.036)">
      <path id="Path_362" data-name="Path 362" d="M2204.319-419.823h-7.359a.678.678,0,0,0-.678.678.678.678,0,0,0,.678.678h7.359a.678.678,0,0,0,.678-.678A.678.678,0,0,0,2204.319-419.823Z" transform="translate(-2196.282 419.823)" fill="#231f20"/>
    </g>
    <g id="Group_108" data-name="Group 108" transform="translate(2103.042 -519.969)">
      <path id="Path_363" data-name="Path 363" d="M2170.878-389.6l-4.167-2.083,3.36-14a.677.677,0,0,0-.5-.817.677.677,0,0,0-.817.5l-3.486,14.525a.677.677,0,0,0,.356.765l4.647,2.324a.679.679,0,0,0,.3.072.678.678,0,0,0,.607-.375A.677.677,0,0,0,2170.878-389.6Z" transform="translate(-2165.249 406.524)" fill="#231f20"/>
    </g>
    <g id="Group_109" data-name="Group 109" transform="translate(2101.105 -496.924)">
      <path id="Path_364" data-name="Path 364" d="M2170.293-331.157a.676.676,0,0,0-.724.629,3.014,3.014,0,0,1-.653,1.464c-.827,1.037-2.311,1.585-4.288,1.585a4.164,4.164,0,0,1-4.37-3.133.677.677,0,0,0-.794-.535.678.678,0,0,0-.537.794,5.521,5.521,0,0,0,5.7,4.229c5.922,0,6.29-4.267,6.293-4.31A.678.678,0,0,0,2170.293-331.157Z" transform="translate(-2158.916 331.16)" fill="#231f20"/>
    </g>
    <g id="Group_116" data-name="Group 116" transform="translate(2087.097 -507.897)">
      <g id="Group_110" data-name="Group 110" transform="translate(0 0.807)">
        <circle id="Ellipse_16" data-name="Ellipse 16" cx="0.871" cy="0.871" r="0.871" transform="translate(0.097 0.097)" fill="#231f20"/>
        <path id="Path_365" data-name="Path 365" d="M2114.073-364.407a.969.969,0,0,0-.969.968.97.97,0,0,0,.969.968.969.969,0,0,0,.968-.968A.969.969,0,0,0,2114.073-364.407Zm0,1.743a.775.775,0,0,1-.775-.775.775.775,0,0,1,.775-.775.776.776,0,0,1,.774.775A.776.776,0,0,1,2114.073-362.664Z" transform="translate(-2113.105 364.407)" fill="#231f20"/>
      </g>
      <g id="Group_111" data-name="Group 111" transform="translate(8.586 1.678)">
        <circle id="Ellipse_17" data-name="Ellipse 17" cx="0.484" cy="0.484" r="0.484" transform="translate(0.097 0.097)" fill="#231f20"/>
        <path id="Path_366" data-name="Path 366" d="M2141.764-361.557a.581.581,0,0,0-.581.581.582.582,0,0,0,.581.581.582.582,0,0,0,.581-.581A.582.582,0,0,0,2141.764-361.557Zm0,.968a.388.388,0,0,1-.387-.387.388.388,0,0,1,.387-.387.388.388,0,0,1,.387.387A.388.388,0,0,1,2141.764-360.589Z" transform="translate(-2141.183 361.557)" fill="#231f20"/>
      </g>
      <g id="Group_112" data-name="Group 112" transform="translate(5.1 5.552)">
        <circle id="Ellipse_18" data-name="Ellipse 18" cx="0.581" cy="0.581" r="0.581" transform="translate(0.097 0.097)" fill="#231f20"/>
        <path id="Path_367" data-name="Path 367" d="M2130.461-348.891a.679.679,0,0,0-.678.678.679.679,0,0,0,.678.678.678.678,0,0,0,.677-.678A.678.678,0,0,0,2130.461-348.891Zm0,1.162a.485.485,0,0,1-.485-.484.485.485,0,0,1,.485-.484.485.485,0,0,1,.484.484A.485.485,0,0,1,2130.461-347.729Z" transform="translate(-2129.783 348.891)" fill="#231f20"/>
      </g>
      <g id="Group_113" data-name="Group 113" transform="translate(28.339 1.678)">
        <path id="Path_368" data-name="Path 368" d="M2206.97-361.241a.872.872,0,0,0-.872.872.872.872,0,0,0,.872.871.872.872,0,0,0,.872-.871A.872.872,0,0,0,2206.97-361.241Z" transform="translate(-2206.002 361.338)" fill="#231f20"/>
        <path id="Path_369" data-name="Path 369" d="M2206.75-361.557a.969.969,0,0,0-.968.968.97.97,0,0,0,.968.968.969.969,0,0,0,.968-.968A.969.969,0,0,0,2206.75-361.557Zm0,1.743a.776.776,0,0,1-.775-.775.776.776,0,0,1,.775-.775.775.775,0,0,1,.774.775A.775.775,0,0,1,2206.75-359.814Z" transform="translate(-2205.782 361.557)" fill="#231f20"/>
      </g>
      <g id="Group_114" data-name="Group 114" transform="translate(38.281 0)">
        <path id="Path_370" data-name="Path 370" d="M2239-366.73a.388.388,0,0,0-.388.387.388.388,0,0,0,.388.387.387.387,0,0,0,.387-.387A.387.387,0,0,0,2239-366.73Z" transform="translate(-2238.512 366.827)" fill="#231f20"/>
        <path id="Path_371" data-name="Path 371" d="M2238.777-367.046a.484.484,0,0,0-.484.484.484.484,0,0,0,.484.484.485.485,0,0,0,.484-.484A.485.485,0,0,0,2238.777-367.046Zm0,.775a.291.291,0,0,1-.291-.291.291.291,0,0,1,.291-.29.291.291,0,0,1,.291.29A.291.291,0,0,1,2238.777-366.271Z" transform="translate(-2238.293 367.046)" fill="#231f20"/>
      </g>
      <g id="Group_115" data-name="Group 115" transform="translate(34.149 4.196)">
        <circle id="Ellipse_19" data-name="Ellipse 19" cx="0.581" cy="0.581" r="0.581" transform="translate(0.097 0.097)" fill="#231f20"/>
        <path id="Path_372" data-name="Path 372" d="M2225.46-353.324a.678.678,0,0,0-.678.678.678.678,0,0,0,.678.678.679.679,0,0,0,.678-.678A.679.679,0,0,0,2225.46-353.324Zm0,1.162a.485.485,0,0,1-.484-.484.485.485,0,0,1,.484-.484.485.485,0,0,1,.484.484A.485.485,0,0,1,2225.46-352.162Z" transform="translate(-2224.782 353.324)" fill="#231f20"/>
      </g>
    </g>
    <g id="Group_117" data-name="Group 117" transform="translate(2112.119 -516.947)">
      <path id="Path_373" data-name="Path 373" d="M2205.678-394.123l-2.137.874a4.365,4.365,0,0,0-4.25-3.392,4.362,4.362,0,0,0-4.357,4.357.678.678,0,0,0,.677.678.678.678,0,0,0,.678-.678,3.005,3.005,0,0,1,3-3,3.006,3.006,0,0,1,3,3,.678.678,0,0,0,.3.563.678.678,0,0,0,.378.115.676.676,0,0,0,.256-.05l2.963-1.212a.678.678,0,0,0,.371-.884A.677.677,0,0,0,2205.678-394.123Z" transform="translate(-2194.934 396.64)" fill="#231f20"/>
    </g>
    <g id="Group_118" data-name="Group 118" transform="translate(2119.152 -517.411)">
      <path id="Path_374" data-name="Path 374" d="M2220.078-397.929,2218.1-395.7a.678.678,0,0,0,.058.957.674.674,0,0,0,.449.171.677.677,0,0,0,.508-.228l1.974-2.227a.678.678,0,0,0-.058-.957A.678.678,0,0,0,2220.078-397.929Z" transform="translate(-2217.933 398.158)" fill="#231f20"/>
    </g>
    <g id="Group_119" data-name="Group 119" transform="translate(2114.154 -515.515)">
      <path id="Path_375" data-name="Path 375" d="M2205.547-389.74A1.743,1.743,0,0,0,2203.8-388a1.743,1.743,0,0,0,1.743,1.743A1.743,1.743,0,0,0,2207.29-388,1.743,1.743,0,0,0,2205.547-389.74Z" transform="translate(-2203.126 390.418)" fill="#fff"/>
      <path id="Path_376" data-name="Path 376" d="M2204.009-391.957a2.423,2.423,0,0,0-2.42,2.421,2.423,2.423,0,0,0,2.42,2.421,2.424,2.424,0,0,0,2.421-2.421A2.424,2.424,0,0,0,2204.009-391.957Zm0,3.486a1.066,1.066,0,0,1-1.065-1.065,1.066,1.066,0,0,1,1.065-1.065,1.067,1.067,0,0,1,1.065,1.065A1.067,1.067,0,0,1,2204.009-388.471Z" transform="translate(-2201.588 391.957)" fill="#1d1d1b"/>
    </g>
    <path id="Path_377" data-name="Path 377" d="M2236.476-474.3c3.481,13.923-4.135,23.408-4.193,20.826-.075-3.288-2.564-8.9-6.652-17.727s-9.073-13.762-4.1-16.063S2234.539-482.05,2236.476-474.3Z" transform="translate(-99.834 -57.099)" fill="#231f20"/>
    <g id="Group_120" data-name="Group 120" transform="translate(2132.382 -514.094)">
      <path id="Path_378" data-name="Path 378" d="M2261.2-378.984c1.268-.264,3.542-1.209,3.559-2.275a10.457,10.457,0,0,0-1.092-4.882c-.817-1.215-2.738-1.723-2.177-.347l.145.1a16.926,16.926,0,0,1,.169,3.461A29.861,29.861,0,0,1,2261.2-378.984Z" transform="translate(-2261.197 387.312)" fill="#fff"/>
    </g>
    <path id="Path_379" data-name="Path 379" d="M2120.707-506.549c3.718,8.027-7.46,16.7-21.635,20.953-19.365,5.81-16.81,23.907-20.528,15.88s-6.972-27.887,11.118-40.1C2101.925-518.1,2116.989-514.575,2120.707-506.549Z" transform="translate(0 -38.447)" fill="#231f20"/>
    <circle id="Ellipse_20" data-name="Ellipse 20" cx="14.379" cy="14.379" r="14.379" transform="translate(2107.519 -569.939)" fill="#231f20"/>
    <g id="Group_121" data-name="Group 121" transform="translate(2131.392 -514.404)">
      <path id="Path_380" data-name="Path 380" d="M2258.628-388.325a.678.678,0,0,0-.669.686.674.674,0,0,0,.687.669,3.544,3.544,0,0,1,2.546,1.017,3.561,3.561,0,0,1,1.082,2.52,3.559,3.559,0,0,1-1.017,2.546,3.559,3.559,0,0,1-2.52,1.082.678.678,0,0,0-.669.686.678.678,0,0,0,.678.669h.009a4.9,4.9,0,0,0,3.473-1.491,4.9,4.9,0,0,0,1.4-3.51,4.906,4.906,0,0,0-1.491-3.473A4.911,4.911,0,0,0,2258.628-388.325Z" transform="translate(-2257.959 388.326)" fill="#231f20"/>
    </g>
  </g>
</svg>
