<svg id="Group_99" data-name="Group 99" xmlns="http://www.w3.org/2000/svg" width="68.728" height="91.096" viewBox="0 0 68.728 91.096">
  <g id="Group_88" data-name="Group 88" transform="translate(7.086 44.146)">
    <path id="Path_333" data-name="Path 333" d="M701.342-323.257a5.3,5.3,0,0,0,5.913,4.614l-1.3-10.526A5.3,5.3,0,0,0,701.342-323.257Z" transform="translate(-700.457 330.013)" fill="#fff"/>
    <path id="Path_334" data-name="Path 334" d="M704.912-331.152a.844.844,0,0,0-.941-.734,6.106,6.106,0,0,0-4.093,2.319,6.107,6.107,0,0,0-1.255,4.534,6.115,6.115,0,0,0,5.463,5.362h0a6.174,6.174,0,0,0,1.39-.014.844.844,0,0,0,.734-.941Zm-.651,9.8h0a4.437,4.437,0,0,1-3.962-3.89,4.432,4.432,0,0,1,.91-3.289,4.428,4.428,0,0,1,2.142-1.5l1.073,8.694C704.369-321.34,704.315-321.344,704.261-321.349Z" transform="translate(-698.577 331.893)" fill="#231f20"/>
  </g>
  <g id="Group_89" data-name="Group 89" transform="translate(61.579 44.299)">
    <path id="Path_335" data-name="Path 335" d="M877.495-328.678l-.318,10.6a5.3,5.3,0,0,0,5.459-5.142A5.3,5.3,0,0,0,877.495-328.678Z" transform="translate(-876.333 329.522)" fill="#fff"/>
    <path id="Path_336" data-name="Path 336" d="M875.64-331.4a.844.844,0,0,0-.868.818l-.318,10.6a.844.844,0,0,0,.818.868,6.189,6.189,0,0,0,1.385-.114h0a6.115,6.115,0,0,0,4.942-5.845,6.107,6.107,0,0,0-1.669-4.4A6.107,6.107,0,0,0,875.64-331.4Zm4.273,6.278a4.435,4.435,0,0,1-3.584,4.241c-.053.011-.107.02-.161.029l.262-8.756a4.425,4.425,0,0,1,2.272,1.3A4.429,4.429,0,0,1,879.913-325.123Z" transform="translate(-874.454 331.401)" fill="#231f20"/>
  </g>
  <g id="Group_90" data-name="Group 90" transform="translate(25.754 69.179)">
    <path id="Path_337" data-name="Path 337" d="M761.327-248.6v16.521s3.53,3.848,11,3.848a18.176,18.176,0,0,0,11.182-3.848V-248.6Z" transform="translate(-760.552 249.375)" fill="#fff"/>
    <path id="Path_338" data-name="Path 338" d="M770.6-229.182c-7.721,0-11.417-3.931-11.57-4.1a.774.774,0,0,1-.2-.524v-16.521a.775.775,0,0,1,.775-.775h22.182a.774.774,0,0,1,.775.775V-233.8a.774.774,0,0,1-.264.582A18.816,18.816,0,0,1,770.6-229.182Zm-10.225-4.951c.828.75,4.185,3.4,10.225,3.4a17.754,17.754,0,0,0,10.408-3.445v-15.374H760.376Z" transform="translate(-758.827 251.1)" fill="#231f20"/>
  </g>
  <g id="Group_91" data-name="Group 91" transform="translate(10.852 6.871)">
    <path id="Path_339" data-name="Path 339" d="M739.231-449.7c-16.98,0-25.99,16.088-25.99,16.088s.587,43.482,7.593,49.118c5.27,4.239,32.711,4.228,37.977,0,7.019-5.635,6.409-49.118,6.409-49.118S756.211-449.7,739.231-449.7Z" transform="translate(-712.464 450.476)" fill="#fff"/>
    <path id="Path_340" data-name="Path 340" d="M738.077-382.271c-7.4,0-16.392-.879-19.46-3.346s-5.334-11.628-6.71-27.208c-1.013-11.471-1.17-22.394-1.172-22.5l0-.208.1-.181a36.952,36.952,0,0,1,6.779-8.236c4.093-3.763,10.866-8.249,19.887-8.249,4.979,0,12.471,1.431,19.887,8.249a36.952,36.952,0,0,1,6.779,8.236l.1.172,0,.2c0,.109.145,11.033-.574,22.5-.976,15.588-3.037,24.748-6.125,27.228-3.07,2.465-12.072,3.344-19.472,3.345Zm-25.79-52.862c.179,12.157,1.82,43.9,7.3,48.309,5.01,4.03,31.987,4.03,37.007,0,5.485-4.4,6.279-36.153,6.123-48.3-1.005-1.672-9.81-15.529-25.218-15.529S713.318-436.848,712.287-435.132Z" transform="translate(-710.732 452.201)" fill="#231f20"/>
  </g>
  <g id="Group_94" data-name="Group 94" transform="translate(19.206 31.027)">
    <g id="Group_92" data-name="Group 92">
      <path id="Path_341" data-name="Path 341" d="M748.67-374.234H738.485a.792.792,0,0,0-.792.792.792.792,0,0,0,.792.792H748.67a.792.792,0,0,0,.792-.792A.792.792,0,0,0,748.67-374.234Z" transform="translate(-737.693 374.234)" fill="#1d1d1b"/>
    </g>
    <g id="Group_93" data-name="Group 93" transform="translate(25.072)">
      <path id="Path_342" data-name="Path 342" d="M829.589-374.234H819.4a.792.792,0,0,0-.792.792.792.792,0,0,0,.792.792h10.185a.792.792,0,0,0,.792-.792A.792.792,0,0,0,829.589-374.234Z" transform="translate(-818.612 374.234)" fill="#1d1d1b"/>
    </g>
  </g>
  <g id="Group_95" data-name="Group 95" transform="translate(33.087 62.233)">
    <path id="Path_343" data-name="Path 343" d="M791.38-273.111a5.325,5.325,0,0,1-7.521-.162.793.793,0,0,0-1.12-.024.793.793,0,0,0-.024,1.12,6.885,6.885,0,0,0,4.987,2.125,6.881,6.881,0,0,0,4.774-1.914.793.793,0,0,0,.024-1.12A.793.793,0,0,0,791.38-273.111Z" transform="translate(-782.495 273.518)" fill="#1d1d1b"/>
  </g>
  <g id="Group_96" data-name="Group 96" transform="translate(34.951 43.216)">
    <path id="Path_344" data-name="Path 344" d="M792.064-332.394,791.011-321.8h3.734" transform="translate(-790.236 333.169)" fill="#fff"/>
    <path id="Path_345" data-name="Path 345" d="M793.02-322.751h-3.734a.773.773,0,0,1-.574-.255.774.774,0,0,1-.2-.6l1.053-10.593a.775.775,0,0,1,.848-.694.774.774,0,0,1,.694.848l-.969,9.742h2.879a.774.774,0,0,1,.775.775A.774.774,0,0,1,793.02-322.751Z" transform="translate(-788.511 334.894)" fill="#231f20"/>
  </g>
  <path id="Path_346" data-name="Path 346" d="M850.687-438.492c1.125,4.5-.788,13.888-2.037,16.636-1.7,3.735-1.334-1.569-6.111-11.883s-13.572-12.317-7.765-15.008S848.311-448,850.687-438.492Z" transform="translate(-784.166 457.299)" fill="#231f20"/>
  <path id="Path_347" data-name="Path 347" d="M726.69-465.454c2.4,9.839-11.97,17.433-25.622,19.407-12.994,1.879-25.362-8.1-25.362-8.1s3.231.345,16.953-13.3C703.7-478.428,724.293-475.293,726.69-465.454Z" transform="translate(-675.706 474.376)" fill="#231f20"/>
  <g id="Group_97" data-name="Group 97" transform="translate(15.587 33.912)">
    <circle id="Ellipse_14" data-name="Ellipse 14" cx="8.082" cy="8.082" r="8.082" transform="matrix(0.16, -0.987, 0.987, 0.16, 0, 15.955)" fill="#231f20"/>
    <path id="Path_348" data-name="Path 348" d="M736.21-345.871a8.866,8.866,0,0,1-8.856-8.856,8.866,8.866,0,0,1,8.856-8.856,8.866,8.866,0,0,1,8.856,8.856A8.866,8.866,0,0,1,736.21-345.871Zm0-16.163a7.315,7.315,0,0,0-7.307,7.307,7.315,7.315,0,0,0,7.307,7.307,7.315,7.315,0,0,0,7.307-7.307A7.315,7.315,0,0,0,736.21-362.034Z" transform="translate(-726.938 363.999)" fill="#231f20"/>
  </g>
  <g id="Group_98" data-name="Group 98" transform="translate(38.573 33.461)">
    <circle id="Ellipse_15" data-name="Ellipse 15" cx="8.082" cy="8.082" r="8.082" transform="translate(0 15.731) rotate(-76.717)" fill="#231f20"/>
    <path id="Path_349" data-name="Path 349" d="M811.853-345.871A8.866,8.866,0,0,1,803-354.727a8.866,8.866,0,0,1,8.856-8.856,8.866,8.866,0,0,1,8.856,8.856A8.866,8.866,0,0,1,811.853-345.871Zm0-16.163a7.315,7.315,0,0,0-7.307,7.307,7.315,7.315,0,0,0,7.307,7.307,7.315,7.315,0,0,0,7.307-7.307A7.315,7.315,0,0,0,811.853-362.034Z" transform="translate(-802.131 364.449)" fill="#231f20"/>
  </g>
  <path id="Path_350" data-name="Path 350" d="M788.344-341.86h-1.549a2.865,2.865,0,0,0-2.862-2.862,2.866,2.866,0,0,0-2.862,2.862h-1.549a4.417,4.417,0,0,1,4.411-4.411A4.416,4.416,0,0,1,788.344-341.86Z" transform="translate(-747.355 385.962)" fill="#231f20"/>
</svg>
